<?xml version="1.0" standalone="no"?>
<!DOCTYPE svg PUBLIC "-//W3C//DTD SVG 20010904//EN"
 "http://www.w3.org/TR/2001/REC-SVG-20010904/DTD/svg10.dtd">
<svg version="1.0" xmlns="http://www.w3.org/2000/svg"
 width="1920.000000pt" height="1920.000000pt" viewBox="0 0 1920.000000 1920.000000"
 preserveAspectRatio="xMidYMid meet">
<metadata>
Created by potrace 1.11, written by Peter Selinger 2001-2013
</metadata>
<g transform="translate(0.000000,1920.000000) scale(0.100000,-0.100000)"
fill="#000000" stroke="none">
<path d="M12256 12296 c-3 -143 -8 -445 -11 -671 -3 -225 -12 -891 -20 -1480
-8 -588 -17 -1265 -21 -1504 -4 -256 -3 -432 2 -429 118 68 952 564 961 572 8
8 -5 105 -52 391 -35 209 -106 641 -159 960 -304 1847 -367 2230 -369 2231 -1
1 -75 45 -163 97 l-162 94 -6 -261z"/>
<path d="M13220 12129 c-179 -154 -331 -286 -338 -293 -10 -9 -2 -100 37 -455
28 -244 51 -445 53 -446 2 -2 132 328 290 733 158 405 286 737 285 738 -1 2
-149 -123 -327 -277z"/>
<path d="M11087 11573 c-119 -346 -399 -1159 -623 -1808 -223 -649 -409 -1190
-411 -1202 -4 -16 83 -187 307 -600 172 -318 316 -581 320 -586 9 -10 911 310
932 331 9 9 100 123 202 252 l185 235 1 110 c0 61 5 304 10 540 21 898 70
3174 70 3262 l0 93 -389 0 -388 0 -216 -627z"/>
<path d="M4570 11304 c-558 -487 -1015 -890 -1014 -897 2 -26 1936 -3062 1950
-3061 23 3 928 327 943 338 8 6 113 124 234 261 121 138 229 259 239 271 22
24 88 -179 -722 2214 -254 751 -492 1454 -528 1563 -37 108 -71 197 -77 196
-5 0 -467 -399 -1025 -885z"/>
<path d="M5895 11943 c3 -10 78 -223 167 -473 88 -250 256 -727 373 -1060 117
-333 337 -958 489 -1390 152 -432 281 -795 286 -807 11 -26 -50 -10 669 -174
l583 -133 616 155 615 155 643 1870 c354 1028 643 1870 644 1872 0 1 -1146 2
-2546 2 -2421 0 -2546 -1 -2539 -17z"/>
<path d="M15472 10171 c-408 -808 -742 -1472 -742 -1475 0 -4 255 -5 567 -4
l568 3 91 750 c50 413 131 1071 179 1463 47 391 85 717 83 722 -2 6 -337 -651
-746 -1459z"/>
<path d="M15403 11127 l-522 -342 -636 -999 c-350 -549 -634 -1000 -632 -1003
8 -7 911 -80 919 -74 6 6 1408 2750 1408 2757 0 12 -58 -25 -537 -339z"/>
<path d="M13227 11114 l-128 -315 142 -992 c78 -546 145 -995 149 -1000 6 -7
1226 1857 1232 1883 3 10 -1241 740 -1261 740 -3 0 -64 -142 -134 -316z"/>
<path d="M3427 10283 c-294 -494 -446 -757 -441 -762 3 -3 220 -8 482 -10 400
-3 474 -1 465 10 -6 8 -117 181 -248 384 -130 204 -241 374 -245 378 -4 5 -10
5 -13 0z"/>
<path d="M5892 7295 c-326 -133 -595 -245 -598 -248 -3 -3 48 -90 114 -194
l119 -188 361 -3 361 -2 145 179 c80 99 151 189 157 199 10 16 6 66 -21 261
-18 133 -35 241 -39 240 -3 0 -273 -110 -599 -244z"/>
<path d="M11030 7295 c-327 -133 -596 -247 -597 -252 -2 -5 50 -92 114 -194
l118 -184 361 -3 361 -2 157 195 158 196 -33 237 c-17 130 -34 240 -38 243 -3
4 -274 -102 -601 -236z"/>
<path d="M11819 6948 c-56 -73 -127 -164 -156 -202 -29 -37 -53 -72 -53 -77 0
-9 423 -13 432 -4 5 6 -104 400 -114 410 -3 4 -52 -54 -109 -127z"/>
<path d="M6599 6841 c-68 -89 -125 -166 -127 -171 -2 -6 63 -10 172 -10 152 0
176 2 176 15 0 22 -81 308 -91 318 -4 5 -62 -64 -130 -152z"/>
</g>
</svg>
